<?xml version="1.0" encoding="UTF-8"?>
<svg version="1.1" xmlns="http://www.w3.org/2000/svg" width="479" height="473">
<path d="M0 0 C0.92683594 0.04108887 1.85367188 0.08217773 2.80859375 0.12451172 C45.68546719 2.23996906 85.47738617 16.07126995 121 40 C122.52947266 41.01513672 122.52947266 41.01513672 124.08984375 42.05078125 C129.2630597 45.55521786 129.2630597 45.55521786 131 47 C131 47.66 131 48.32 131 49 C132.0828125 49.37125 132.0828125 49.37125 133.1875 49.75 C136.27606582 51.12269592 138.51011418 52.72353296 141 55 C141 55.66 141 56.32 141 57 C141.5765332 57.25201172 142.15306641 57.50402344 142.74707031 57.76367188 C145.28477516 59.15627454 146.99768299 60.73883378 149.046875 62.78125 C149.80629395 63.53664062 150.56571289 64.29203125 151.34814453 65.0703125 C152.14075684 65.87210937 152.93336914 66.67390625 153.75 67.5 C154.55679199 68.31210938 155.36358398 69.12421875 156.19482422 69.9609375 C171 85.0034046 171 85.0034046 171 89 C171.66 89 172.32 89 173 89 C174.58178215 91.07086548 176.01976439 93.13174696 177.4375 95.3125 C177.87707031 95.9832959 178.31664062 96.6540918 178.76953125 97.34521484 C213.03639097 150.25798941 228.4832431 211.63748793 215.8125 274.125 C212.3920182 290.07344918 207.32934034 305.41335215 200 320 C199.3751288 321.28328352 198.75149762 322.56717136 198.12890625 323.8515625 C191.74995725 336.92078214 184.92379455 349.45669629 176 361 C175.35160156 361.84175781 174.70320313 362.68351562 174.03515625 363.55078125 C169.92939235 368.77851627 165.59910317 373.75596752 161.11328125 378.66015625 C159.20470832 380.77334514 157.37679005 382.93107749 155.5625 385.125 C154.716875 386.07375 153.87125 387.0225 153 388 C152.34 388 151.68 388 151 388 C151 388.66 151 389.32 151 390 C149.70703125 391.33984375 149.70703125 391.33984375 147.8125 392.9375 C146.73162109 393.85208984 146.73162109 393.85208984 145.62890625 394.78515625 C144.76136719 395.51605469 143.89382813 396.24695313 143 397 C141.90370026 397.95560177 140.80872599 398.91272559 139.71484375 399.87109375 C138.56018601 400.87273044 137.4052379 401.87403249 136.25 402.875 C135.69546143 403.36347412 135.14092285 403.85194824 134.56958008 404.35522461 C129.62840745 408.59488655 129.62840745 408.59488655 126 409 C126 409.66 126 410.32 126 411 C123.57163285 412.67515153 121.14747505 414.22836335 118.625 415.75 C117.60599609 416.37648438 117.60599609 416.37648438 116.56640625 417.015625 C115.14142382 417.88925909 113.71304138 418.75736571 112.28173828 419.62060547 C110.72229947 420.56334346 109.16881042 421.51597547 107.62060547 422.47705078 C55.79513519 454.34042195 -8.05250295 460.64544371 -66.47216797 446.7512207 C-100.61762524 438.13445415 -131.31815784 420.72231078 -158 398 C-158.73347656 397.40058594 -159.46695313 396.80117188 -160.22265625 396.18359375 C-161.85541665 394.83648527 -163.43531013 393.42560632 -165 392 C-165 391.34 -165 390.68 -165 390 C-165.99 389.67 -166.98 389.34 -168 389 C-168 388.34 -168 387.68 -168 387 C-168.66 387 -169.32 387 -170 387 C-170 386.34 -170 385.68 -170 385 C-170.99 384.67 -171.98 384.34 -173 384 C-174.40234375 382.64453125 -174.40234375 382.64453125 -175.9375 380.8125 C-178.13457528 378.20174946 -180.34141801 375.62312314 -182.6328125 373.09375 C-222.79967963 328.46237832 -238.67084923 269.15484449 -235.86376953 210.13574219 C-235.50653243 205.04536649 -234.85007803 200.03001334 -234 195 C-233.87109375 194.22221191 -233.7421875 193.44442383 -233.609375 192.64306641 C-226.75631019 152.56374177 -210.08089148 114.42596271 -183.84765625 83.2421875 C-181.88644847 80.93914813 -181.88644847 80.93914813 -180 78 C-179.34 78 -178.68 78 -178 78 C-177.74927734 77.42475586 -177.49855469 76.84951172 -177.24023438 76.25683594 C-175.83271173 73.69558804 -174.21829975 71.95942608 -172.15625 69.890625 C-171.40472656 69.13652344 -170.65320313 68.38242188 -169.87890625 67.60546875 C-169.09386719 66.82816406 -168.30882812 66.05085938 -167.5 65.25 C-166.71496094 64.45722656 -165.92992187 63.66445312 -165.12109375 62.84765625 C-164.36957031 62.09871094 -163.61804688 61.34976563 -162.84375 60.578125 C-162.15474609 59.89137695 -161.46574219 59.20462891 -160.75585938 58.49707031 C-159 57 -159 57 -157 57 C-157 56.34 -157 55.68 -157 55 C-155.72509766 53.77001953 -155.72509766 53.77001953 -153.9140625 52.3828125 C-153.24004395 51.86436768 -152.56602539 51.34592285 -151.87158203 50.81176758 C-151.13020996 50.25513428 -150.38883789 49.69850098 -149.625 49.125 C-148.85913574 48.54709717 -148.09327148 47.96919434 -147.30419922 47.3737793 C-120.26946504 27.17342152 -91.13792863 12.34161167 -58 5 C-56.74316406 4.70609375 -55.48632812 4.4121875 -54.19140625 4.109375 C-36.66445676 0.38877386 -17.89076222 -0.82472424 0 0 Z " fill="#080706" transform="translate(248,9)"/>
<path d="M0 0 C0.7784729 -0.00785522 1.5569458 -0.01571045 2.35900879 -0.02380371 C13.67486913 -0.11260464 24.24044441 1.07912225 35.3125 3.375 C36.91919556 3.68896729 36.91919556 3.68896729 38.55834961 4.00927734 C65.41294875 9.31594204 65.41294875 9.31594204 76.27734375 14.8984375 C79.28145377 16.47824903 79.28145377 16.47824903 82.61328125 17.26171875 C87.28734279 18.6683793 91.25401759 20.81025208 95.5 23.1875 C96.36568604 23.66960938 97.23137207 24.15171875 98.12329102 24.6484375 C112.87212225 32.97668808 126.7175064 42.03397355 139.3125 53.375 C140.62465213 54.47958004 141.93711268 55.58379389 143.25 56.6875 C147.0867536 60.0752718 150.73343746 63.65520369 154.375 67.25 C154.95306396 67.81501221 155.53112793 68.38002441 156.12670898 68.9621582 C157.89837288 70.7303034 159.60791733 72.54207047 161.3125 74.375 C161.92154175 75.01937515 162.5305835 75.66375031 163.15808105 76.32765198 C168.26954542 82.22164614 169.29218031 86.41157927 168.99609375 94.09765625 C168.98618912 95.08374374 168.97628448 96.06983124 168.96607971 97.08580017 C168.9272046 100.20461107 168.83943612 103.31977132 168.75 106.4375 C168.71485129 108.56440193 168.68291856 110.69135959 168.65429688 112.81835938 C168.58350477 118.00640941 168.44651593 123.18666912 168.3125 128.375 C154.1225 128.375 139.9325 128.375 125.3125 128.375 C125.3125 142.895 125.3125 157.415 125.3125 172.375 C121.0225 172.375 116.7325 172.375 112.3125 172.375 C112.14814453 169.62542969 112.14814453 169.62542969 111.98046875 166.8203125 C111.82092087 164.38016848 111.66073052 161.94006641 111.5 159.5 C111.42974609 158.29601562 111.35949219 157.09203125 111.28710938 155.8515625 C110.61736068 145.99286168 109.13281374 137.64633215 103.8125 129.1875 C101.24696502 124.98738365 99.13678025 120.93570062 97.3125 116.375 C96.9825 116.045 96.6525 115.715 96.3125 115.375 C96.07838508 110.53662499 96.25708436 106.30379991 97.3125 101.58203125 C98.59832992 94.76169153 98.57913109 88.00207321 98.51831055 81.09301758 C98.49982341 78.91671236 98.49780313 76.74082947 98.49804688 74.56445312 C98.61555367 66.88942777 98.61555367 66.88942777 97.3125 59.375 C97.1635188 57.31409344 97.04105423 55.25118791 96.9375 53.1875 C96.54052971 47.42166926 95.40598076 42.74523326 93.3125 37.375 C87.02586236 37.88279439 82.00758757 39.41183588 76.25 41.9375 C75.00609497 42.47648926 75.00609497 42.47648926 73.73706055 43.02636719 C59.16413671 49.43727788 44.69794717 56.98955283 33.3125 68.375 C30.6875 68.09765625 30.6875 68.09765625 27.3125 67.375 C11.17484082 64.1306581 -4.89344855 62.24144939 -21.04614258 66.32373047 C-32.09062066 69.08609654 -32.09062066 69.08609654 -37.22265625 66.80078125 C-39.93934444 64.6130058 -42.40484718 62.33398078 -44.90722656 59.91552734 C-48.32345288 56.95935783 -52.26554792 54.83661557 -56.1875 52.625 C-57.00428223 52.16077637 -57.82106445 51.69655273 -58.66259766 51.21826172 C-69.90189342 44.91802583 -81.90910007 38.6796757 -94.6875 36.375 C-94.790625 37.2825 -94.89375 38.19 -95 39.125 C-95.61295522 43.52228745 -96.78947311 47.74465253 -97.96875 52.01953125 C-99.76681714 60.41376858 -99.90957827 68.94296475 -99.9375 77.5 C-99.94289795 78.61713379 -99.9482959 79.73426758 -99.95385742 80.88525391 C-99.90076842 89.98713985 -98.98395219 98.83401108 -97.49121094 107.80908203 C-97.27319824 109.21456299 -97.27319824 109.21456299 -97.05078125 110.6484375 C-96.90938721 111.46747559 -96.76799316 112.28651367 -96.62231445 113.13037109 C-96.70788045 116.07678988 -97.81698494 117.15756882 -99.6875 119.375 C-100.42986846 121.08567515 -101.16955251 122.79794332 -101.8671875 124.52734375 C-102.6875 126.375 -102.6875 126.375 -104.75 129.75 C-106.73673824 133.10403718 -107.5198189 136.34545582 -108.1953125 140.1640625 C-108.6875 142.375 -108.6875 142.375 -109.703125 144.83203125 C-111.51680019 149.51735882 -111.46469841 154.39564353 -111.6875 159.375 C-111.72149902 160.10734863 -111.75549805 160.83969727 -111.79052734 161.59423828 C-112.29854708 174.15547756 -110.85802836 185.24040753 -107.6875 197.375 C-107.1925 199.85 -107.1925 199.85 -106.6875 202.375 C-141.3375 202.375 -175.9875 202.375 -211.6875 202.375 C-210.6875 179.375 -210.6875 179.375 -207.6875 168.375 C-207.24052413 166.04434009 -206.79359231 163.71367158 -206.34765625 161.3828125 C-205.44717858 157.28004443 -204.36083402 153.23774019 -203.25 149.1875 C-203.04455566 148.42687256 -202.83911133 147.66624512 -202.62744141 146.88256836 C-201.31956585 142.18824759 -199.71379113 137.82038574 -197.6875 133.375 C-197.3272876 132.57989014 -196.9670752 131.78478027 -196.59594727 130.96557617 C-187.90599528 111.9435997 -178.21517448 94.38195518 -164.6875 78.375 C-164.00816406 77.56546875 -163.32882813 76.7559375 -162.62890625 75.921875 C-151.22326845 62.84874629 -138.87836172 50.39548603 -124.6875 40.375 C-123.85347656 39.75753906 -123.01945312 39.14007813 -122.16015625 38.50390625 C-102.36437105 24.09822139 -79.41500955 13.20255866 -55.6875 7.375 C-54.43453125 7.05660156 -53.1815625 6.73820312 -51.890625 6.41015625 C-47.50730921 5.31599185 -43.10311591 4.32955226 -38.6875 3.375 C-37.98238281 3.21821777 -37.27726563 3.06143555 -36.55078125 2.89990234 C-24.44132378 0.31740945 -12.33086106 0.06093722 0 0 Z " fill="#FAD9C5" transform="translate(239.6875,23.625)"/>
<path d="M0 0 C4.12594925 0.69931343 7.87615061 1.96763781 11.8125 3.375 C36.83708985 11.84839973 66.24830063 12.06891654 90.89453125 1.81640625 C93.9186214 0.64379986 96.78123227 0.28611269 100 0 C104.72218127 10.0056054 108.60882674 19.8611263 111.1875 30.625 C111.35451416 31.3173877 111.52152832 32.00977539 111.69360352 32.72314453 C113.49845189 40.58347747 114.1538632 48.43669866 114.23828125 56.48828125 C114.24793915 57.26567154 114.25759705 58.04306183 114.26754761 58.8440094 C114.29217367 61.3335555 114.30490977 63.82284563 114.3125 66.3125 C114.31545074 67.1601593 114.31840149 68.0078186 114.32144165 68.88116455 C114.34513963 98.76396823 106.31411736 125.29325688 84.9921875 147.234375 C80.26818578 151.79829427 74.79996981 154.95355121 69 158 C68.2265625 158.45375 67.453125 158.9075 66.65625 159.375 C57.60804827 163.9628206 45.00073239 163.51143849 35.35546875 161.08203125 C32.40717469 159.91255389 29.74008691 158.59307379 27 157 C26.24074219 156.58878906 25.48148438 156.17757812 24.69921875 155.75390625 C12.41146988 148.39871731 4.11623764 137.10213663 -3 125 C-3.78503906 123.80697266 -3.78503906 123.80697266 -4.5859375 122.58984375 C-6.44327923 119.18813777 -7.47802791 115.70841561 -8.5625 112 C-10.0978129 106.71784948 -10.0978129 106.71784948 -12.05078125 101.58203125 C-22.32083899 73.64578366 -15.3541247 40.06427798 -6 13 C-5.05615125 10.97289627 -4.07307479 8.96176209 -3 7 C-2.42364064 5.71445773 -1.85804571 4.42391836 -1.3125 3.125 C-0.879375 2.09375 -0.44625 1.0625 0 0 Z " fill="#E2807A" transform="translate(190,280)"/>
<path d="M0 0 C0.66 0 1.32 0 2 0 C28.26446365 48.20205847 37.47499143 105.12784297 22.0625 158.5 C21.09284438 161.68496455 20.06366254 164.84532915 19 168 C18.77135254 168.69561035 18.54270508 169.3912207 18.30712891 170.10791016 C16.26630089 176.28453554 14.10874781 182.33570646 10.9921875 188.05859375 C10.11628565 189.77246469 9.35152996 191.54215985 8.60546875 193.31640625 C-7.7027306 231.74628199 -40.6849397 263.90892493 -75.97802734 284.79296875 C-79.43885571 286.85893536 -82.84284359 289.01874144 -86.25 291.171875 C-86.8275 291.44515625 -87.405 291.7184375 -88 292 C-88.66 291.67 -89.32 291.34 -90 291 C-89.05125 290.13375 -88.1025 289.2675 -87.125 288.375 C-83.54310804 284.80775791 -80.61138117 280.91785482 -77.6875 276.8125 C-77.25518066 276.20647949 -76.82286133 275.60045898 -76.37744141 274.97607422 C-74.34596969 272.0795681 -72.45179944 269.23245953 -71 266 C-70.34 266 -69.68 266 -69 266 C-68.7525 264.88625 -68.505 263.7725 -68.25 262.625 C-67.2178781 258.48187237 -65.73989718 254.62355923 -64.09765625 250.6875 C-55.43311142 229.47324078 -51.03032453 195.54909838 -60 174 C-60 173.01 -60 172.02 -60 171 C-54.72 171 -49.44 171 -44 171 C-44 155.49 -44 139.98 -44 124 C-29.48 124 -14.96 124 0 124 C0 104.2 0 84.4 0 64 C-14.52 64 -29.04 64 -44 64 C-44 54.1 -44 44.2 -44 34 C-29.48 34 -14.96 34 0 34 C0 22.78 0 11.56 0 0 Z " fill="#329CA7" transform="translate(423,132)"/>
<path d="M0 0 C3.81248426 -0.02887236 7.6249407 -0.04675492 11.4375 -0.0625 C12.52611328 -0.07087891 13.61472656 -0.07925781 14.73632812 -0.08789062 C15.77080078 -0.09111328 16.80527344 -0.09433594 17.87109375 -0.09765625 C18.82943115 -0.10289307 19.78776855 -0.10812988 20.77514648 -0.11352539 C23 0 23 0 24 1 C24.75875288 4.45095437 25.41909066 7.91691681 26.0859375 11.38671875 C28.58175311 21.25265651 35.4184147 30.16414488 44.0625 35.5 C54.45086082 41.32458521 66.42049474 43.64679486 78.12597656 40.41259766 C90.80620373 35.6833681 98.29195933 26.99580422 104 15 C104.93097729 12.03614651 105.68703026 9.12689892 106.296875 6.08203125 C106.64492188 5.05142578 106.64492188 5.05142578 107 4 C107.99 3.67 108.98 3.34 110 3 C110.08789644 6.83318619 110.14069087 10.66610928 110.1875 14.5 C110.21263672 15.57765625 110.23777344 16.6553125 110.26367188 17.765625 C110.32357017 24.31450559 109.71047204 29.03430418 107 35 C106.70738281 35.81726563 106.41476562 36.63453125 106.11328125 37.4765625 C99.40054262 55.48634906 86.23153706 73.75029533 69 83 C68.34 83 67.68 83 67 83 C67 83.66 67 84.32 67 85 C35.9976626 99.35293398 5.77888173 104.31591828 -27.12524414 92.26098633 C-29.08845258 91.51944153 -31.04547441 90.76409518 -33 90 C-33.88558594 89.6596875 -34.77117187 89.319375 -35.68359375 88.96875 C-51.72937436 82.33306176 -67.30900892 69.1147671 -76 54 C-76 53.34 -76 52.68 -76 52 C-76.66 52 -77.32 52 -78 52 C-84.38168924 39.91767136 -87.1829591 29.80174033 -87.0625 16.125 C-87.05798828 15.15046875 -87.05347656 14.1759375 -87.04882812 13.171875 C-87.03710906 10.78118566 -87.02070219 8.3906256 -87 6 C-86.34 5.67 -85.68 5.34 -85 5 C-84.76925781 5.60585937 -84.53851563 6.21171875 -84.30078125 6.8359375 C-78.58806924 21.5128656 -72.68453908 32.98989115 -57.796875 39.94140625 C-49.67002729 43.01735001 -41.15297461 42.91177665 -33 40 C-32.22914063 39.74347656 -31.45828125 39.48695313 -30.6640625 39.22265625 C-19.58248091 35.25033547 -13.26742582 28.7529655 -7 19 C-6.2575 18.071875 -5.515 17.14375 -4.75 16.1875 C-1.97671877 11.13616634 -1.10078595 5.62067979 0 0 Z " fill="#F7F7F7" transform="translate(228,176)"/>
<path d="M0 0 C2.23861093 1.66460813 4.26149641 3.40557918 6.28515625 5.32421875 C7.00316406 5.98808594 7.72117187 6.65195312 8.4609375 7.3359375 C14.66835389 13.29369546 18.68697126 18.57773337 20.03515625 27.26171875 C20.21510132 28.37389771 20.21510132 28.37389771 20.39868164 29.50854492 C22.84950474 45.86304251 21.14893811 58.90184617 11.41015625 72.6328125 C3.64040581 82.47354422 -8.3169923 89.22638536 -20.71484375 91.32421875 C-34.56292839 92.63201268 -45.97399171 89.87603182 -57.34765625 81.4296875 C-61.69593176 77.56216192 -65.42310833 73.11870295 -68.71484375 68.32421875 C-68.71484375 67.66421875 -68.71484375 67.00421875 -68.71484375 66.32421875 C-69.37484375 66.32421875 -70.03484375 66.32421875 -70.71484375 66.32421875 C-76.52942236 52.6184263 -78.55526706 37.07039834 -73.76171875 22.64453125 C-71.89566824 18.50858347 -69.50384687 14.89080108 -66.71484375 11.32421875 C-65.95042969 10.34324219 -65.18601563 9.36226563 -64.3984375 8.3515625 C-48.15289132 -10.93090371 -20.64575123 -12.74392414 0 0 Z " fill="#030404" transform="translate(266.71484375,330.67578125)"/>
<path d="M0 0 C1.7315229 2.59728435 2.70340307 4.64503439 3.78125 7.52734375 C12.53472701 29.81075687 27.07822115 51.07822115 44 68 C44.1953125 70.6015625 44.1953125 70.6015625 44.125 73.625 C44.10695312 74.62789063 44.08890625 75.63078125 44.0703125 76.6640625 C44.04710937 77.43492187 44.02390625 78.20578125 44 79 C58.65231576 77.66252704 73.90601589 75.06354372 87 68 C87.93972656 67.49726563 88.87945312 66.99453125 89.84765625 66.4765625 C96.7988265 62.59234347 102.93344365 58.13944143 109 53 C109.98355469 52.21753906 110.96710938 51.43507813 111.98046875 50.62890625 C121.32789104 42.81861563 127.06347722 31.90284999 132 21 C136.11526292 21.64173654 139.30388435 23.86986158 142.75 26.0625 C143.35199219 26.43955078 143.95398438 26.81660156 144.57421875 27.20507812 C146.05249143 28.13193163 147.52666089 29.06532389 149 30 C147.72770318 33.92677063 146.30937771 37.74202461 144.75 41.5625 C137.95299167 59.32695245 134.92006727 77.01956273 132 96 C102.96 96 73.92 96 44 96 C44.33 104.58 44.66 113.16 45 122 C31.38045739 108.38045739 19.33191827 88.63717046 13.70703125 70.18359375 C12.95586591 67.86369638 12.02736955 65.6764444 11.0625 63.4375 C8.9774522 58.34425346 7.69877242 53.15323879 6.43432617 47.81201172 C5.59796348 44.30003404 4.67813631 40.92838976 3.375 37.5625 C-0.72169335 25.78730491 -0.29817792 12.30812197 0 0 Z " fill="#CD434C" transform="translate(28,243)"/>
<path d="M0 0 C3.63 0 7.26 0 11 0 C11.0093457 0.81678223 11.01869141 1.63356445 11.02832031 2.47509766 C11.08215507 6.19233506 11.16577994 9.908332 11.25 13.625 C11.26417969 14.91019531 11.27835937 16.19539063 11.29296875 17.51953125 C11.41179595 26.57940314 11.41179595 26.57940314 16 34 C19.0410545 33.78278182 19.99389084 33.00656507 22.09375 30.75 C25.25966617 25.79420311 24.67945278 19.80725781 24.75 14.125 C24.77964844 12.9596875 24.80929687 11.794375 24.83984375 10.59375 C24.91028601 7.72909805 24.96311113 4.86524795 25 2 C49.79731454 6.6602769 71.52743964 18.83020516 86 40 C86 40.99 86 41.98 86 43 C85.29093506 42.98428955 84.58187012 42.9685791 83.85131836 42.95239258 C64.22134148 42.52465656 64.22134148 42.52465656 45 46 C44.00734131 46.26538574 44.00734131 46.26538574 42.99462891 46.53613281 C33.60877814 49.06317657 24.04737282 51.95262718 17 59 C13.33633126 59.53775634 9.63603893 59.4633127 5.9375 59.5 C4.41866211 59.561875 4.41866211 59.561875 2.86914062 59.625 C-4.89552296 59.70509969 -8.95738255 57.6800438 -15 53 C-29.94131437 44.89135281 -48.28737077 43.14058302 -65 42.4375 C-66.44826172 42.37272461 -66.44826172 42.37272461 -67.92578125 42.30664062 C-70.28374425 42.20158287 -72.64179416 42.09943086 -75 42 C-72.72251669 31.40907271 -61.13838686 23.18347409 -53 17 C-52.21882813 16.37351562 -51.43765625 15.74703125 -50.6328125 15.1015625 C-41.07066156 8.17292198 -25.80657889 2 -14 2 C-14.00112793 2.71019287 -14.00225586 3.42038574 -14.00341797 4.15209961 C-13.99120497 7.41482924 -13.93341686 10.67528337 -13.875 13.9375 C-13.87757813 15.05447266 -13.88015625 16.17144531 -13.8828125 17.32226562 C-13.69846886 25.17991308 -12.1075839 29.98472547 -7 36 C-2.91164453 30.95769492 -0.76474066 28.16794749 -0.5859375 21.58203125 C-0.54726562 20.32841797 -0.50859375 19.07480469 -0.46875 17.78320312 C-0.4378125 16.47287109 -0.406875 15.16253906 -0.375 13.8125 C-0.33680662 12.4771884 -0.29775409 11.14190108 -0.2578125 9.80664062 C-0.16340847 6.53790112 -0.07782983 3.26916936 0 0 Z " fill="#F6A631" transform="translate(234,102)"/>
<path d="M0 0 C23.76 0 47.52 0 72 0 C72.78008971 3.12035886 73.20497515 5.68792935 73.4296875 8.8515625 C73.50316406 9.78613281 73.57664062 10.72070312 73.65234375 11.68359375 C73.7989734 13.62064857 73.93974965 15.55815678 74.07421875 17.49609375 C74.60030454 24.01420751 75.90440951 29.81508807 78 36 C78.350625 37.13050781 78.70125 38.26101563 79.0625 39.42578125 C79.5265625 40.85470703 79.5265625 40.85470703 80 42.3125 C80.309375 43.27800781 80.61875 44.24351562 80.9375 45.23828125 C82.02328094 48.06051334 83.44727308 50.41351688 85 53 C85.86397362 55.64736301 86.39922546 58.27340784 87 61 C87.66 61 88.32 61 89 61 C90.12109375 62.73046875 90.12109375 62.73046875 91.4375 65.1875 C96.09726622 73.26135236 102.37308634 80.46454184 109 87 C101.89078643 86.44413556 95.5392179 84.89233287 88.75 82.75 C87.7300293 82.43135986 86.71005859 82.11271973 85.65917969 81.78442383 C54.99315773 72.10054544 29.37664001 56.95703715 11 30 C10.26652344 28.9378125 9.53304687 27.875625 8.77734375 26.78125 C3.14178499 18.18983556 0 10.33994379 0 0 Z " fill="#F8A934" transform="translate(88,354)"/>
<path d="M0 0 C19.14 0 38.28 0 58 0 C58 9.9 58 19.8 58 30 C43.48 30 28.96 30 14 30 C14 45.84 14 61.68 14 78 C-4.15 78 -22.3 78 -41 78 C-42.65 74.04 -44.3 70.08 -46 66 C-46.66 64.68 -47.32 63.36 -48 62 C-46.99839844 61.27554688 -45.99679687 60.55109375 -44.96484375 59.8046875 C-43.62228321 58.82827984 -42.27984166 57.85170854 -40.9375 56.875 C-40.28072266 56.400625 -39.62394531 55.92625 -38.94726562 55.4375 C-25.93555235 45.95112776 -17.10476619 34.82577761 -9 21 C-8.01 19.35 -7.02 17.7 -6 16 C-4.02 10.72 -2.04 5.44 0 0 Z " fill="#369376" transform="translate(350,211)"/>
<path d="M0 0 C11.22 0 22.44 0 34 0 C41.94191667 21.17844445 41.9807175 48.71808667 34 70 C33.35078317 71.83778303 32.70163462 73.67559064 32.05395508 75.51391602 C29.19953064 83.60093871 29.19953064 83.60093871 28 86 C27.34 86 26.68 86 26 86 C25.7628125 86.86109375 25.525625 87.7221875 25.28125 88.609375 C23.87456544 92.33194269 21.94880403 95.16841678 19.5 98.25 C19.05495117 98.81501221 18.60990234 99.38002441 18.15136719 99.9621582 C11.83274645 107.84707552 4.92371385 114.56555663 -3.25 120.5 C-4.1177002 121.13264771 -4.1177002 121.13264771 -5.00292969 121.77807617 C-8.53540005 124.25192137 -11.8495859 125.84291486 -16 127 C-16 127.66 -16 128.32 -16 129 C-20.0188515 130.81242323 -23.61110675 132.33501617 -28 133 C-27.195625 132.113125 -26.39125 131.22625 -25.5625 130.3125 C-0.31565258 100.61032656 5.82644795 65.90478724 4 28 C3.47398127 22.01290245 2.59890336 16.10690579 1.38891602 10.22045898 C0.79575262 6.83387952 0.426448 3.411584 0 0 Z " fill="#359478" transform="translate(314,303)"/>
<path d="M0 0 C9.3170747 4.83458673 17.86426823 11.47952563 21.7109375 21.65234375 C23.98886078 32.27642855 22.33196631 42.40364759 17.1875 51.875 C11.89687648 60.0003225 4.39329744 64.55473323 -4.765625 67.50390625 C-15.35696099 69.42409121 -23.90165704 67.86425511 -32.8125 61.875 C-39.31949307 56.87616981 -45.10363226 49.40981968 -46.38525391 41.2109375 C-46.52624512 40.11007812 -46.66723633 39.00921875 -46.8125 37.875 C-20.55860716 35.48158761 -20.55860716 35.48158761 -14.50830078 39.34716797 C-10.94136819 43.28469095 -9.22263826 47.81296523 -7.8125 52.875 C-4.86023777 49.34700394 -2.45957849 45.76013098 -0.17578125 41.76953125 C0.31158257 40.92161263 0.31158257 40.92161263 0.80879211 40.05656433 C1.83483492 38.26911895 2.8549277 36.47835795 3.875 34.6875 C4.57058768 33.47439378 5.26654788 32.26150108 5.96289062 31.04882812 C9.1813595 25.51944188 9.1813595 25.51944188 12.1875 19.875 C12.8475 19.875 13.5075 19.875 14.1875 19.875 C14.1875 18.885 14.1875 17.895 14.1875 16.875 C7.2575 16.875 0.3275 16.875 -6.8125 16.875 C-7.4725 20.505 -8.1325 24.135 -8.8125 27.875 C-12.48992126 26.03628937 -13.4100402 25.51068217 -15.5625 22.375 C-15.99046875 21.7665625 -16.4184375 21.158125 -16.859375 20.53125 C-17.8125 18.875 -17.8125 18.875 -17.8125 16.875 C-23.0925 16.875 -28.3725 16.875 -33.8125 16.875 C-33.8125 19.185 -33.8125 21.495 -33.8125 23.875 C-37.4425 23.875 -41.0725 23.875 -44.8125 23.875 C-44.54092316 17.35715583 -42.25345166 13.5940906 -37.8125 8.875 C-27.26463779 -0.71570593 -13.87794654 -6.05583122 0 0 Z " fill="#3197A2" transform="translate(251.8125,339.125)"/>
<path d="M0 0 C1.51690288 0.02014307 3.03383229 0.03837973 4.55078125 0.0546875 C8.20108966 0.0979569 11.85036241 0.16652835 15.5 0.25 C15.77435539 7.97358741 15.7558808 14.75235926 12.9375 22 C12.6708252 22.71808838 12.40415039 23.43617676 12.12939453 24.17602539 C9.6476819 30.51379412 6.45039994 37.06541487 0.2890625 40.47265625 C-0.30132812 40.72917969 -0.89171875 40.98570312 -1.5 41.25 C-1.5 41.91 -1.5 42.57 -1.5 43.25 C-7.21943756 46.96314271 -15.94495863 46.15069271 -22.5 45.25 C-31.19684621 42.26320433 -37.63592736 35.14157165 -41.8125 27.125 C-42.39416213 25.84184834 -42.95852778 24.55062172 -43.5 23.25 C-43.9125 22.26 -44.325 21.27 -44.75 20.25 C-45.70031825 16.44872699 -45.63490421 13.16222214 -45.5 9.25 C-30.41741733 2.28001862 -16.46936069 -0.38854935 0 0 Z " fill="#EC9F31" transform="translate(309.5,158.75)"/>
<path d="M0 0 C4.14018485 -0.07558619 8.27997759 -0.12925873 12.4206543 -0.16479492 C13.82176732 -0.17964771 15.22283595 -0.19993556 16.6237793 -0.22631836 C31.0232625 -0.49019678 45.51729788 0.90795845 58.23828125 8.30078125 C60 10 60 10 60.53125 12.41796875 C60.45729142 18.97254754 59.69031457 23.55338841 56 29 C55.45214844 29.82628906 54.90429688 30.65257812 54.33984375 31.50390625 C49.3768354 38.34205533 43.67757442 43.83265104 35.07275391 45.33691406 C28.62890091 46.06941388 21.89346687 46.35551236 16.375 42.5 C14.60546875 40.83984375 14.60546875 40.83984375 13 39 C12.15888672 38.04287109 12.15888672 38.04287109 11.30078125 37.06640625 C8.02251852 32.9943753 5.8709395 28.90007965 4 24 C3.46375 22.865625 2.9275 21.73125 2.375 20.5625 C0.27103822 15.1113263 -0.04606539 10.00540311 -0.01953125 4.2421875 C-0.01671143 3.44409668 -0.0138916 2.64600586 -0.01098633 1.82373047 C-0.00736084 1.22189941 -0.00373535 0.62006836 0 0 Z " fill="#EFA02F" transform="translate(154,159)"/>
<path d="M0 0 C25.74 0 51.48 0 78 0 C78 10.23 78 20.46 78 31 C74.54145416 29.27072708 71.94755489 27.56194752 68.9375 25.1875 C68.08027344 24.52105469 67.22304688 23.85460937 66.33984375 23.16796875 C64 21 64 21 62.96704102 18.40600586 C61.29202131 15.86380338 61.29202131 15.86380338 59.05357361 15.52720642 C56.41966689 15.33489819 53.82839246 15.30742825 51.1875 15.3359375 C50.22223389 15.33115387 49.25696777 15.32637024 48.26245117 15.32144165 C46.22150035 15.31803897 44.18049531 15.32726712 42.13964844 15.34814453 C39.01113652 15.37490474 35.88621249 15.34840908 32.7578125 15.31640625 C30.77603373 15.31971028 28.79425719 15.32611638 26.8125 15.3359375 C25.87494873 15.32581635 24.93739746 15.31569519 23.97143555 15.30526733 C21.54368401 15.34919749 19.36008668 15.42854977 17 16 C14.958172 18.26720143 14.958172 18.26720143 14 21 C12.00941754 22.87043757 10.05314787 24.60224573 7.9375 26.3125 C7.39544922 26.76689453 6.85339844 27.22128906 6.29492188 27.68945312 C2.2675047 31 2.2675047 31 0 31 C0 20.77 0 10.54 0 0 Z " fill="#070303" transform="translate(200,297)"/>
<path d="M0 0 C0.78632813 -0.01611328 1.57265625 -0.03222656 2.3828125 -0.04882812 C7.7538464 -0.05328912 11.45612742 0.88351911 16.25 3.3125 C15.55579349 8.77689692 12.74971571 12.27239125 9.6484375 16.69140625 C8.02495834 19.14942556 8.02495834 19.14942556 8.47265625 21.54296875 C9.50327899 23.88905971 10.06102979 24.90026115 12.25 26.3125 C15.25605709 26.65189354 17.35071818 26.87513291 20.25 26.3125 C21.054375 25.590625 21.85875 24.86875 22.6875 24.125 C23.533125 23.526875 24.37875 22.92875 25.25 22.3125 C28.44231283 22.86980207 31.29674842 23.99994374 34.25 25.3125 C34.39155575 31.82406438 31.46795996 35.67481146 27.0625 40.3203125 C22.83276178 43.31637707 19.31870186 43.21944949 14.265625 42.95703125 C9.14888848 41.86342824 6.09663842 39.65736917 3.25 35.3125 C-1.0872893 35.81295646 -3.52982347 38.57192423 -6.75 41.3125 C-11.37541581 42.85430527 -15.92479383 42.95633249 -20.75 42.3125 C-23.75 40 -23.75 40 -25.75 37.3125 C-26.5853125 36.5390625 -26.5853125 36.5390625 -27.4375 35.75 C-30.01608719 32.92583308 -30.72697334 30.91119312 -30.875 27.0625 C-30.83375 26.155 -30.7925 25.2475 -30.75 24.3125 C-27.15735548 23.11495183 -24.52282526 22.98155042 -20.75 23.3125 C-19.39567325 24.62450404 -18.06266518 25.95881404 -16.75 27.3125 C-13.10278304 28.12015878 -13.10278304 28.12015878 -9.75 28.3125 C-9.46125 27.69375 -9.1725 27.075 -8.875 26.4375 C-7.75 24.3125 -7.75 24.3125 -5.75 22.3125 C-5.75 16.90631029 -8.39731489 13.66009527 -11.5703125 9.55859375 C-12.75 7.3125 -12.75 7.3125 -12.6171875 4.66015625 C-10.52231275 -1.01110378 -5.09079826 -0.02046141 0 0 Z " fill="#080808" transform="translate(237.75,201.6875)"/>
<path d="M0 0 C4.35196115 0.73006756 6.16869786 2.75629581 8.8515625 6.11328125 C10 8 10 8 10.1875 10.875 C2.66813488 30.66280296 -13.11757856 46.69967789 -32.015625 55.68359375 C-36.61183594 57.71097999 -41.19738374 59.52284291 -46 61 C-46.72058594 61.24621094 -47.44117187 61.49242187 -48.18359375 61.74609375 C-50.1875 62.25 -50.1875 62.25 -54 62 C-57.13391121 59.70755204 -59.68763529 57.11800242 -62 54 C-62 53.34 -62 52.68 -62 52 C-61.28199219 51.82726562 -60.56398438 51.65453125 -59.82421875 51.4765625 C-45.29535615 47.53223865 -31.06725123 40.26923312 -20 30 C-19.31035156 29.40058594 -18.62070313 28.80117188 -17.91015625 28.18359375 C-9.57294519 20.51848031 -4.22629908 10.38965191 0 0 Z " fill="#D86065" transform="translate(140,243)"/>
<path d="M0 0 C6.19292699 -0.14831992 12.38482069 -0.2572042 18.57910156 -0.32958984 C20.68605557 -0.35976335 22.79288396 -0.4007083 24.89941406 -0.45263672 C27.92804934 -0.52542673 30.9550247 -0.55945024 33.984375 -0.5859375 C35.39707672 -0.63238907 35.39707672 -0.63238907 36.83831787 -0.67977905 C39.36506733 -0.68107939 41.55197598 -0.62823562 44 0 C46.47143555 2.8972168 46.47143555 2.8972168 48 6 C50.43158478 8.25824455 50.43158478 8.25824455 53.0625 10.1875 C54.71609818 11.4482132 56.36277318 12.71809787 58 14 C58.87398437 14.65355469 58.87398437 14.65355469 59.765625 15.3203125 C61.69755421 17.94920351 61.52871584 20.48006003 61.6875 23.6875 C61.75324219 24.86699219 61.81898438 26.04648437 61.88671875 27.26171875 C61.94279297 28.61716797 61.94279297 28.61716797 62 30 C61.05125 29.154375 60.1025 28.30875 59.125 27.4375 C45.6614027 16.04315817 32.77487421 10.35871186 15.06542969 11.76074219 C3.29844712 13.12382055 -6.04227169 19.55998512 -14 28 C-14.99 28.66 -15.98 29.32 -17 30 C-18.37376185 17.77182356 -18.37376185 17.77182356 -15.20703125 13.6875 C-12.88039651 11.94154964 -10.51775381 10.45397202 -8 9 C-4.4577027 6.37112527 -1.84186429 4.06923505 0 0 Z " fill="#EC942F" transform="translate(217,312)"/>
<path d="M0 0 C1.26457031 0.04640625 2.52914062 0.0928125 3.83203125 0.140625 C5.74048828 0.19476563 5.74048828 0.19476563 7.6875 0.25 C8.66332031 0.29640625 9.63914062 0.3428125 10.64453125 0.390625 C8.89768855 10.48881159 -0.74209158 20.1307371 -8.35546875 26.390625 C-20.30621499 34.59211752 -34.67049743 41.32840055 -49.35546875 41.390625 C-51.68146699 37.43642799 -53.70989487 33.68245959 -55.35546875 29.390625 C-54.16050781 29.07609375 -52.96554688 28.7615625 -51.734375 28.4375 C-39.71033073 25.3194744 -39.71033073 25.3194744 -28.35546875 20.390625 C-27.41574219 19.89949219 -26.47601563 19.40835937 -25.5078125 18.90234375 C-18.02427872 14.78687321 -9.47484694 9.68439328 -5.02734375 2.13671875 C-3.35546875 0.390625 -3.35546875 0.390625 0 0 Z " fill="#DA6969" transform="translate(114.35546875,240.609375)"/>
<path d="M0 0 C2.65236876 11.65147703 5.56679212 32.86641575 0 44 C-2 44 -2 44 -4.28515625 41.80078125 C-5.18105469 40.87652344 -6.07695312 39.95226562 -7 39 C-15.58945351 31.15300298 -24.60517639 25.1974118 -35 20 C-33.68205408 16.04616225 -31.257718 14.91019353 -27.875 12.8125 C-27.2569751 12.42392822 -26.6389502 12.03535645 -26.00219727 11.63500977 C-21.38712589 8.77298145 -16.69838599 6.04928433 -11.9375 3.4375 C-11.3192334 3.09114502 -10.7009668 2.74479004 -10.06396484 2.38793945 C-6.56539433 0.51913484 -3.97629689 -0.41341461 0 0 Z " fill="#E89932" transform="translate(324,79)"/>
<path d="M0 0 C4.97023228 0.5404081 8.85763861 2.18090785 13.1875 4.5625 C13.83734863 4.91530029 14.48719727 5.26810059 15.15673828 5.6315918 C31.17220521 14.51661564 31.17220521 14.51661564 33 20 C32.24976563 20.4125 31.49953125 20.825 30.7265625 21.25 C20.67774108 26.91986397 12.24691437 33.6992938 3.8125 41.53125 C2 43 2 43 0 43 C-2.24331228 35.80715747 -2.29894839 28.99726146 -2.25 21.5 C-2.25773438 20.31535156 -2.26546875 19.13070312 -2.2734375 17.91015625 C-2.2593401 11.58747212 -1.88536878 6.0451507 0 0 Z " fill="#EF9C33" transform="translate(155,79)"/>
<path d="M0 0 C11.58692565 -0.46279141 24.1836876 -0.02066026 34 7 C36.61250992 9.46764799 39.02305645 11.99133904 41 15 C41 18 41 18 39.25 20.25 C37 22 37 22 35 21.8125 C34.34 21.544375 33.68 21.27625 33 21 C32.2575 20.814375 31.515 20.62875 30.75 20.4375 C30.1725 20.293125 29.595 20.14875 29 20 C28.38125 20.804375 27.7625 21.60875 27.125 22.4375 C24.27050431 25.87968598 23.65674686 25.93644385 19.125 26.375 C15.97272633 26.30049171 15.15611325 26.11318211 12.5 24.1875 C10.29395136 19.49964664 10.67873861 15.09556265 11 10 C7.7 10 4.4 10 1 10 C0.67 6.7 0.34 3.4 0 0 Z " fill="#090501" transform="translate(163,167)"/>
<path d="M0 0 C3.1171995 -0.01692291 6.23082809 -0.00227553 9.34765625 0.04296875 C8.68765625 3.01296875 8.02765625 5.98296875 7.34765625 9.04296875 C4.04765625 9.04296875 0.74765625 9.04296875 -2.65234375 9.04296875 C-2.6059375 9.77902344 -2.55953125 10.51507813 -2.51171875 11.2734375 C-2.21435122 19.31298119 -2.21435122 19.31298119 -4.52734375 23.16796875 C-7.04195615 25.3867444 -8.1344304 25.97391364 -11.46484375 26.41796875 C-15.69089974 25.92078569 -17.02589253 24.28740849 -19.65234375 21.04296875 C-19.65234375 20.38296875 -19.65234375 19.72296875 -19.65234375 19.04296875 C-20.39484375 19.39359375 -21.13734375 19.74421875 -21.90234375 20.10546875 C-24.87214319 21.11790038 -25.81674893 21.23208916 -28.65234375 20.04296875 C-30.90234375 18.48046875 -30.90234375 18.48046875 -32.65234375 17.04296875 C-29.34917517 9.23547938 -23.3254559 4.31154306 -15.65234375 1.04296875 C-10.45074899 -0.04424983 -5.29248942 0.06226458 0 0 Z " fill="#070401" transform="translate(306.65234375,166.95703125)"/>
<path d="M0 0 C14.85 0 29.7 0 45 0 C45 0.66 45 1.32 45 2 C32.32311332 8.78295755 19.82454301 15.2296856 5 14 C4.49632243 12.54293274 3.99717444 11.08429904 3.5 9.625 C3.2215625 8.81289062 2.943125 8.00078125 2.65625 7.1640625 C2 5 2 5 2 3 C1.34 3 0.68 3 0 3 C0 2.01 0 1.02 0 0 Z " fill="#DA6C6B" transform="translate(44,241)"/>
<path d="M0 0 C2.20147603 2.20147603 2.46851763 3.13660877 3.18359375 6.0859375 C3.48958496 7.34349854 3.48958496 7.34349854 3.80175781 8.62646484 C4.01155273 9.53348145 4.22134766 10.44049805 4.4375 11.375 C4.76572754 12.77999756 4.76572754 12.77999756 5.10058594 14.21337891 C15.91476917 61.83891407 13.18072901 113.90838052 -9 158 C-9.67145179 159.36545359 -10.3419691 160.73136696 -11.01171875 162.09765625 C-14.17316024 168.50857937 -17.40613089 174.81854514 -21 181 C-21.33 180.34 -21.66 179.68 -22 179 C-21.06421005 176.64018187 -20.06652192 174.30368736 -19 172 C-18.34 172 -17.68 172 -17 172 C-16.773125 171.236875 -16.54625 170.47375 -16.3125 169.6875 C-15.24168944 166.67903225 -14.05254149 163.93853081 -12.6875 161.0625 C-10.33482358 155.98348678 -8.52158433 150.80110273 -6.80761719 145.4831543 C-5.64326029 141.88419129 -4.39101623 138.36684564 -2.9375 134.875 C1.3566129 124.2701058 3.58045904 114.21353692 4.60546875 102.87109375 C5 99 5 99 5.49047852 97.17626953 C8.01799989 86.38071347 7.2396587 74.11218288 7.25 63.0625 C7.25100708 62.30563904 7.25201416 61.54877808 7.25305176 60.76898193 C7.23785172 43.74538327 6.48473335 26.77056393 0.78515625 10.58203125 C-0.33118532 6.91087814 -0.29831138 3.80347006 0 0 Z " fill="#D99DA5" transform="translate(457,171)"/>
<path d="M0 0 C3.81248426 -0.02887236 7.6249407 -0.04675492 11.4375 -0.0625 C12.52611328 -0.07087891 13.61472656 -0.07925781 14.73632812 -0.08789062 C15.77080078 -0.09111328 16.80527344 -0.09433594 17.87109375 -0.09765625 C18.82943115 -0.10289307 19.78776855 -0.10812988 20.77514648 -0.11352539 C23 0 23 0 24 1 C24.51484705 3.22119725 24.98674615 5.45241484 25.4375 7.6875 C26.35919467 12.25736834 27.44034224 16.60460085 29 21 C23.99460192 20.25976507 20.68345855 16.78575763 16.8515625 13.71484375 C13.48930898 11.69288581 11.85766248 11.40534057 8 12 C5.34131503 13.41124979 5.34131503 13.41124979 2.9375 15.375 C-0.29472339 17.85661227 -3.14679304 19.6400446 -7 21 C-5.25 15.25 -5.25 15.25 -3 13 C-2.38649958 10.8105352 -1.85440188 8.59768143 -1.375 6.375 C-0.98441406 4.59222656 -0.98441406 4.59222656 -0.5859375 2.7734375 C-0.29589844 1.40058594 -0.29589844 1.40058594 0 0 Z " fill="#F6A63D" transform="translate(228,176)"/>
<path d="M0 0 C0.66 0 1.32 0 2 0 C2.08789644 3.83318619 2.14069087 7.66610928 2.1875 11.5 C2.21263672 12.57765625 2.23777344 13.6553125 2.26367188 14.765625 C2.32362952 21.32099466 1.69691284 26.02448724 -1 32 C-1.57393666 33.66276298 -2.1390867 35.32864519 -2.6875 37 C-2.93886719 37.763125 -3.19023437 38.52625 -3.44921875 39.3125 C-3.63097656 39.869375 -3.81273437 40.42625 -4 41 C-4.33 40.34 -4.66 39.68 -5 39 C-6.62615503 38.76285239 -8.25391467 38.53358632 -9.88671875 38.34765625 C-14.39591404 37.60584778 -18.91433702 36.04283149 -23 34 C-22.49210937 33.64808594 -21.98421875 33.29617187 -21.4609375 32.93359375 C-9.76442471 24.54452184 -4.10501963 13.68339876 0 0 Z " fill="#E69B33" transform="translate(336,179)"/>
<path d="M0 0 C1.90902032 2.86353048 2.96566436 5.36404287 4.1875 8.5625 C7.89227834 17.5847249 13.55553259 24.76962193 20 32 C14.34724339 35.80946641 9.77386385 36.72740991 3 37 C2.51490207 35.62708132 2.03724487 34.25153297 1.5625 32.875 C1.29566406 32.10929687 1.02882812 31.34359375 0.75390625 30.5546875 C-1.14799755 24.10989432 -1.15221338 17.85024346 -1.125 11.1875 C-1.12886719 10.22134766 -1.13273438 9.25519531 -1.13671875 8.25976562 C-1.13542969 7.34259766 -1.13414062 6.42542969 -1.1328125 5.48046875 C-1.13168457 4.64410889 -1.13055664 3.80774902 -1.12939453 2.94604492 C-1 1 -1 1 0 0 Z " fill="#E79A2F" transform="translate(142,181)"/>
<path d="M0 0 C0.495 0.99 0.495 0.99 1 2 C-6.91620265 14.27232533 -15.44431691 25.61220658 -25.45703125 36.24609375 C-27.30187615 38.24396726 -29.00529206 40.23102264 -30.69921875 42.34765625 C-31.45847656 43.22292969 -32.21773438 44.09820312 -33 45 C-33.66 45 -34.32 45 -35 45 C-35 45.66 -35 46.32 -35 47 C-36.29296875 48.33984375 -36.29296875 48.33984375 -38.1875 49.9375 C-38.90808594 50.54722656 -39.62867188 51.15695312 -40.37109375 51.78515625 C-41.23863281 52.51605469 -42.10617187 53.24695313 -43 54 C-44.09629974 54.95560177 -45.19127401 55.91272559 -46.28515625 56.87109375 C-47.43981399 57.87273044 -48.5947621 58.87403249 -49.75 59.875 C-50.58180786 60.60771118 -50.58180786 60.60771118 -51.43041992 61.35522461 C-56.37159255 65.59488655 -56.37159255 65.59488655 -60 66 C-60 66.66 -60 67.32 -60 68 C-62.42872 69.67539494 -64.85176208 71.22886325 -67.375 72.75 C-68.46687622 73.41672729 -68.46687622 73.41672729 -69.58081055 74.09692383 C-71.0419446 74.98810394 -72.50473969 75.87656681 -73.96923828 76.76220703 C-75.72035354 77.82954947 -77.45379455 78.92579064 -79.18359375 80.02734375 C-80.48490234 80.84912109 -80.48490234 80.84912109 -81.8125 81.6875 C-82.56144531 82.16574219 -83.31039063 82.64398438 -84.08203125 83.13671875 C-86 84 -86 84 -89 83 C-86.525 82.01 -86.525 82.01 -84 81 C-84 80.34 -84 79.68 -84 79 C-83.15179688 78.53851563 -82.30359375 78.07703125 -81.4296875 77.6015625 C-72.47675523 72.65450013 -64.18164687 67.12879729 -56 61 C-55.42781738 60.57879883 -54.85563477 60.15759766 -54.26611328 59.72363281 C-40.48092138 49.54320054 -28.45844865 37.57864879 -18 24 C-17.13745357 22.90436902 -16.27413586 21.80934493 -15.41015625 20.71484375 C-11.71690606 16.00556131 -8.08751669 11.32730719 -5 6.1875 C-4.34 5.135625 -3.68 4.08375 -3 3 C-2.34 3 -1.68 3 -1 3 C-0.67 2.01 -0.34 1.02 0 0 Z " fill="#D69AA2" transform="translate(434,352)"/>
<path d="M0 0 C2.26728428 2.26728428 2.5048449 3.33891276 3.21875 6.40234375 C3.42886719 7.29373047 3.63898438 8.18511719 3.85546875 9.10351562 C4.06816406 10.03873047 4.28085937 10.97394531 4.5 11.9375 C4.71269531 12.83791016 4.92539062 13.73832031 5.14453125 14.66601562 C5.79013691 17.44053564 6.4197023 20.21089004 7 23 C7.16892761 23.79225983 7.33785522 24.58451965 7.51190186 25.40078735 C8.85291188 32.11009677 9.29392557 38.51190712 9.265625 45.34375 C9.26753845 46.39292603 9.2694519 47.44210205 9.27142334 48.52307129 C9.27277561 50.73152915 9.26914668 52.93999522 9.26074219 55.1484375 C9.25011624 58.46373172 9.26062579 61.7784733 9.2734375 65.09375 C9.28385578 81.24819496 8.62687086 97.19720555 5 113 C4.67 113 4.34 113 4 113 C3.85474047 108.42432479 3.79511862 104.31759424 4.9375 99.875 C7.84274118 88.11747556 7.23871343 75.12219537 7.25 63.0625 C7.25100708 62.30563904 7.25201416 61.54877808 7.25305176 60.76898193 C7.23785172 43.74538327 6.48473335 26.77056393 0.78515625 10.58203125 C-0.33118532 6.91087814 -0.29831138 3.80347006 0 0 Z " fill="#55202A" transform="translate(457,171)"/>
<path d="M0 0 C-4.00669856 8.01339713 -24.66175803 12.49952008 -32.75 15.25 C-46.33792383 19.74028757 -61.5418973 24.6416911 -76 24 C-76 23.67 -76 23.34 -76 23 C-75.09983154 22.78907715 -74.19966309 22.5781543 -73.2722168 22.36083984 C-39.46435499 15.32811558 -39.46435499 15.32811558 -8.0625 1.6875 C-4.98200208 -0.00991722 -3.44160994 -0.41716484 0 0 Z " fill="#D8A0A8" transform="translate(345,436)"/>
<path d="M0 0 C0.66 0.33 1.32 0.66 2 1 C-4.39457087 8.16799629 -10.98743743 15.11592085 -17.75 21.9375 C-18.45825928 22.6586499 -19.16651855 23.3797998 -19.89624023 24.12280273 C-24.01507653 28.24934409 -28.1519379 31.75738255 -33 35 C-31.63055898 32.05043472 -30.12169591 29.47531189 -28 27 C-27.34 27 -26.68 27 -26 27 C-25.74927734 26.42475586 -25.49855469 25.84951172 -25.24023438 25.25683594 C-23.83271173 22.69558804 -22.21829975 20.95942608 -20.15625 18.890625 C-19.40472656 18.13652344 -18.65320313 17.38242188 -17.87890625 16.60546875 C-16.70134766 15.43951172 -16.70134766 15.43951172 -15.5 14.25 C-14.71496094 13.45722656 -13.92992188 12.66445312 -13.12109375 11.84765625 C-12.36957031 11.09871094 -11.61804688 10.34976563 -10.84375 9.578125 C-9.81024414 8.54800293 -9.81024414 8.54800293 -8.75585938 7.49707031 C-7 6 -7 6 -5 6 C-5 5.34 -5 4.68 -5 4 C-3.37373596 2.61767557 -1.7074998 1.28062485 0 0 Z " fill="#5A5858" transform="translate(96,60)"/>
<path d="M0 0 C2.3573585 2.1593607 3.79643452 4.21504195 5.234375 7.0625 C5.63994629 7.85398437 6.04551758 8.64546875 6.46337891 9.4609375 C7.10025635 10.71777344 7.10025635 10.71777344 7.75 12 C13.63075564 23.37301853 20.35114479 33.72868015 28 44 C27.67 44.66 27.34 45.32 27 46 C17.73113416 35.22947434 10.57396481 23.17820834 3.875 10.6875 C3.48449463 9.96425537 3.09398926 9.24101074 2.69165039 8.49584961 C0 3.36880911 0 3.36880911 0 0 Z " fill="#B09FA1" transform="translate(32,328)"/>
<path d="M0 0 C-1.31481911 2.62963823 -2.52597905 2.87380683 -5.19140625 4.05859375 C-6.05443359 4.44466797 -6.91746094 4.83074219 -7.80664062 5.22851562 C-8.71607422 5.62748047 -9.62550781 6.02644531 -10.5625 6.4375 C-11.44486328 6.83259766 -12.32722656 7.22769531 -13.23632812 7.63476562 C-28.60635655 14.46210272 -28.60635655 14.46210272 -36 14 C-32.88922482 11.92614988 -30.22664529 10.98687097 -26.6875 9.8125 C-20.11681124 7.53593356 -14.16564655 4.6666916 -8.05859375 1.35546875 C-5.03888506 0.01723259 -3.24801563 -0.30847076 0 0 Z " fill="#DAA6AC" transform="translate(345,436)"/>
<path d="M0 0 C2.26728428 2.26728428 2.5048449 3.33891276 3.21875 6.40234375 C3.42798096 7.28768799 3.63721191 8.17303223 3.8527832 9.08520508 C4.06636475 10.0264624 4.27994629 10.96771973 4.5 11.9375 C4.72067139 12.89229248 4.94134277 13.84708496 5.16870117 14.83081055 C9.33777494 33.04896417 9.33777494 33.04896417 9 42 C8.67 42 8.34 42 8 42 C7.79636841 40.93471069 7.79636841 40.93471069 7.58862305 39.84790039 C6.96118655 36.58485885 6.3244113 33.32370484 5.6875 30.0625 C5.47416016 28.94552734 5.26082031 27.82855469 5.04101562 26.67773438 C3.91231329 20.93314488 2.65842018 15.43531 0.58007812 9.95507812 C-0.41299858 6.60804181 -0.18895973 3.4642617 0 0 Z " fill="#D0A9B0" transform="translate(457,171)"/>
<path d="M0 0 C3.69680172 0.56326051 6.19006373 1.52709305 9.3125 3.5625 C16.26985331 7.90160806 23.64151461 11.40292401 31 15 C26.65364392 16.44878536 23.90239083 14.40605535 20 12.5 C19.24340088 12.13704834 18.48680176 11.77409668 17.70727539 11.40014648 C11.53537163 8.38339812 5.52208682 5.11472992 0 1 C0 0.67 0 0.34 0 0 Z " fill="#C08691" transform="translate(120,428)"/>
<path d="M0 0 C0.66 0.33 1.32 0.66 2 1 C-0.10016623 2.17441535 -2.20458755 3.33964012 -4.3125 4.5 C-4.90740234 4.83386719 -5.50230469 5.16773438 -6.11523438 5.51171875 C-8.95828844 7.06825114 -10.70660988 8 -14 8 C-14 8.66 -14 9.32 -14 10 C-19.625 13 -19.625 13 -23 13 C-23.33 13.99 -23.66 14.98 -24 16 C-25.32 15.67 -26.64 15.34 -28 15 C-22.13032699 11.35389724 -16.15416422 7.94543741 -10.0625 4.6875 C-9.4120874 4.33816406 -8.7616748 3.98882813 -8.09155273 3.62890625 C-5.41764963 2.20934489 -2.87797769 0.9593259 0 0 Z " fill="#A39F9F" transform="translate(148,28)"/>
<path d="M0 0 C3.81248426 -0.02887236 7.6249407 -0.04675492 11.4375 -0.0625 C12.52611328 -0.07087891 13.61472656 -0.07925781 14.73632812 -0.08789062 C15.77080078 -0.09111328 16.80527344 -0.09433594 17.87109375 -0.09765625 C18.82943115 -0.10289307 19.78776855 -0.10812988 20.77514648 -0.11352539 C23 0 23 0 24 1 C24.39569108 3.01311449 24.74252191 5.03597208 25.0625 7.0625 C25.23910156 8.16722656 25.41570312 9.27195313 25.59765625 10.41015625 C25.79681641 11.69212891 25.79681641 11.69212891 26 13 C24.51171875 11.69921875 24.51171875 11.69921875 23 10 C22.8125 6.8125 22.8125 6.8125 23 4 C22.34 4 21.68 4 21 4 C21 3.01 21 2.02 21 1 C14.4 1 7.8 1 1 1 C0.67 2.98 0.34 4.96 0 7 C-0.93423645 3.98968256 -1.04449911 3.13349732 0 0 Z " fill="#AD7428" transform="translate(228,176)"/>
<path d="M0 0 C5.54955043 0.57610313 10.26029497 2.02098548 15.4375 4.0625 C16.16904297 4.34416016 16.90058594 4.62582031 17.65429688 4.91601562 C19.43873546 5.60413247 21.21973905 6.30114606 23 7 C19.07512417 8.30829194 17.13242188 7.40952975 13.1875 6.25 C11.98480469 5.90453125 10.78210938 5.5590625 9.54296875 5.203125 C6.17052762 4.05790795 3.13897452 2.67283787 0 1 C0 0.67 0 0.34 0 0 Z " fill="#908889" transform="translate(301,18)"/>
<path d="M0 0 C1 3 1 3 0.22729492 5.06884766 C-0.18415771 5.84276855 -0.59561035 6.61668945 -1.01953125 7.4140625 C-1.46490234 8.25710938 -1.91027344 9.10015625 -2.36914062 9.96875 C-2.84544922 10.8453125 -3.32175781 11.721875 -3.8125 12.625 C-4.27720703 13.50929688 -4.74191406 14.39359375 -5.22070312 15.3046875 C-8.72624771 21.86312386 -8.72624771 21.86312386 -11 23 C-9.125 16.25 -9.125 16.25 -8 14 C-7.34 14 -6.68 14 -6 14 C-5.7525 13.175 -5.505 12.35 -5.25 11.5 C-3.81295189 7.47626529 -1.97645485 3.78020976 0 0 Z " fill="#EAB8BF" transform="translate(446,329)"/>
<path d="M0 0 C-1.20381448 2.49361571 -2.45428722 4.68143083 -4 7 C-4.16699232 10.12521833 -4.16699232 10.12521833 -4 13 C-3.34 13.33 -2.68 13.66 -2 14 C-3.32 14.99 -4.64 15.98 -6 17 C-6.10794277 14.73020335 -6.18556176 12.45894804 -6.25 10.1875 C-6.29640625 8.92292969 -6.3428125 7.65835937 -6.390625 6.35546875 C-6 3 -6 3 -4.109375 1.05078125 C-2 0 -2 0 0 0 Z " fill="#D67E3F" transform="translate(206,325)"/>
<path d="M0 0 C1.2065625 0.0309375 1.2065625 0.0309375 2.4375 0.0625 C0.3993283 4.13884339 -5.48172306 5.48998894 -9.5625 7.0625 C-11.96127047 7.63656473 -14.09420242 7.89794683 -16.5625 8.0625 C-15.04281967 5.02313935 -12.66548314 4.72582471 -9.5625 3.5 C-0.80477003 0.01962854 -0.80477003 0.01962854 0 0 Z " fill="#CF8A93" transform="translate(342.5625,435.9375)"/>
<path d="M0 0 C-1.48302402 4.44907205 -5.08285501 6.74579392 -9 9 C-9.66 9 -10.32 9 -11 9 C-11 9.66 -11 10.32 -11 11 C-12.32 10.67 -13.64 10.34 -15 10 C-12.87941855 8.32742872 -10.75395924 6.66184582 -8.625 5 C-8.02171875 4.52304687 -7.4184375 4.04609375 -6.796875 3.5546875 C-2.2265625 0 -2.2265625 0 0 0 Z " fill="#CF8E96" transform="translate(385,409)"/>
<path d="M0 0 C3.02207032 2.47035721 3.514897 4.4433617 4.0625 8.25 C4.58165697 11.58052397 5.14442796 14.73179193 6.1875 17.9375 C7.00877067 21.03305869 6.89428613 22.06344341 6 25 C4.99131083 21.58583753 3.99457679 18.16829771 3 14.75 C2.71382812 13.78191406 2.42765625 12.81382812 2.1328125 11.81640625 C1.86210937 10.88183594 1.59140625 9.94726562 1.3125 8.984375 C0.93544922 7.69611816 0.93544922 7.69611816 0.55078125 6.38183594 C0 4 0 4 0 0 Z " fill="#A7A0A0" transform="translate(18,286)"/>
<path d="M0 0 C2.99381354 2.80466193 5.1993621 5.61184269 7.3125 9.125 C8.11107422 10.42824219 8.11107422 10.42824219 8.92578125 11.7578125 C9.28027344 12.49773437 9.63476562 13.23765625 10 14 C9.67 14.66 9.34 15.32 9 16 C5.19732364 12.61984323 2.18894972 8.59320596 0 4 C0 2.68 0 1.36 0 0 Z " fill="#796D6F" transform="translate(429,112)"/>
<path d="M0 0 C0.66 0.33 1.32 0.66 2 1 C1.28972656 1.67546875 0.57945312 2.3509375 -0.15234375 3.046875 C-1.07144531 3.93890625 -1.99054688 4.8309375 -2.9375 5.75 C-4.31228516 7.07257813 -4.31228516 7.07257813 -5.71484375 8.421875 C-7.82429343 10.80176695 -8.66067071 11.9099375 -9 15 C-9.66 13.68 -10.32 12.36 -11 11 C-9.92173635 9.72486237 -8.83714481 8.45507431 -7.75 7.1875 C-7.14671875 6.47980469 -6.5434375 5.77210938 -5.921875 5.04296875 C-4.07629602 3.08110329 -2.20054668 1.54330375 0 0 Z " fill="#41280C" transform="translate(285,171)"/>
<path d="M0 0 C0.99 0.33 1.98 0.66 3 1 C2.34 1 1.68 1 1 1 C1 1.66 1 2.32 1 3 C-0.57421875 4.5859375 -0.57421875 4.5859375 -2.6875 6.375 C-3.77611328 7.30119141 -3.77611328 7.30119141 -4.88671875 8.24609375 C-7.23449112 10.19461463 -9.59564775 12.1215998 -12 14 C-12 11 -12 11 -9.375 8.30078125 C-8.25745974 7.29632542 -7.13208967 6.30052871 -6 5.3125 C-5.42765625 4.80138672 -4.8553125 4.29027344 -4.265625 3.76367188 C-2.85032787 2.5016986 -1.42599731 1.24986967 0 0 Z " fill="#DFA1A9" transform="translate(398,396)"/>
<path d="M0 0 C1.67731087 3.35462174 -0.17893576 6.6569891 -1.25 10.0625 C-1.46785156 10.80822266 -1.68570312 11.55394531 -1.91015625 12.32226562 C-2.50840301 14.24820037 -3.24601505 16.12953735 -4 18 C-4.99 18.33 -5.98 18.66 -7 19 C-5.23072051 12.46727573 -3.23673227 5.97550572 0 0 Z " fill="#B26D78" transform="translate(453,310)"/>
<path d="M0 0 C1.32 0.33 2.64 0.66 4 1 C4 1.99 4 2.98 4 4 C2.68 4 1.36 4 0 4 C-0.12375 4.7425 -0.2475 5.485 -0.375 6.25 C-0.95486701 8.80141485 -1.73708739 10.7267573 -3 13 C-3.66 13 -4.32 13 -5 13 C-3.58192622 8.52761347 -1.88695626 4.28853694 0 0 Z " fill="#963D43" transform="translate(140,243)"/>
<path d="M0 0 C3.64575537 3.64575537 4.125 8.45017592 4.125 13.4375 C4.08375 14.613125 4.0425 15.78875 4 17 C0.23389596 11.35084394 -0.22755952 6.59922601 0 0 Z " fill="#A3888C" transform="translate(457,171)"/>
<path d="M0 0 C0.33 0 0.66 0 1 0 C1.7230444 7.10993658 1.7230444 7.10993658 -0.3359375 9.64453125 C-2 11 -2 11 -5 13 C-4.54803755 11.39402675 -4.08817673 9.79027492 -3.625 8.1875 C-3.36976563 7.29417969 -3.11453125 6.40085938 -2.8515625 5.48046875 C-2 3 -2 3 0 0 Z " fill="#D5902E" transform="translate(336,181)"/>
<path d="M0 0 C0.66 0.33 1.32 0.66 2 1 C-2.29 5.29 -6.58 9.58 -11 14 C-11 9.40845608 -8.09282279 7.18698368 -5 4 C-3.3719908 2.61973133 -1.71956118 1.26438322 0 0 Z " fill="#351E0F" transform="translate(210,332)"/>
<path d="M0 0 C0.55171875 0.22558594 1.1034375 0.45117188 1.671875 0.68359375 C-3.953125 3.68359375 -3.953125 3.68359375 -7.328125 3.68359375 C-7.658125 4.67359375 -7.988125 5.66359375 -8.328125 6.68359375 C-9.648125 6.35359375 -10.968125 6.02359375 -12.328125 5.68359375 C-10.75465324 4.64762475 -9.16890954 3.63027643 -7.578125 2.62109375 C-6.69640625 2.05261719 -5.8146875 1.48414063 -4.90625 0.8984375 C-2.328125 -0.31640625 -2.328125 -0.31640625 0 0 Z " fill="#898787" transform="translate(132.328125,37.31640625)"/>
<path d="M0 0 C0.33 0.99 0.66 1.98 1 3 C-0.3125 5 -0.3125 5 -2 7 C-2.99 8.485 -2.99 8.485 -4 10 C-5.32 9.67 -6.64 9.34 -8 9 C-5.36 6.03 -2.72 3.06 0 0 Z " fill="#286D58" transform="translate(294,426)"/>
<path d="M0 0 C0.33 0.66 0.66 1.32 1 2 C-0.70847138 6.13629913 -2.67356033 9.01767477 -6 12 C-6.66 11.67 -7.32 11.34 -8 11 C-5.36 7.37 -2.72 3.74 0 0 Z " fill="#B14A50" transform="translate(134,256)"/>
<path d="M0 0 C1.98 1.32 3.96 2.64 6 4 C1.47907032 5.45606519 -1.51648796 4.27032841 -6 3 C-6 2.67 -6 2.34 -6 2 C-4.02 2 -2.04 2 0 2 C0 1.34 0 0.68 0 0 Z " fill="#C3832A" transform="translate(191,436)"/>
<path d="M0 0 C-1.51671964 4.55015893 -5.16891053 6.50057264 -9 9 C-7.45665977 5.21180126 -4.44676575 0 0 0 Z " fill="#C5BDB3" transform="translate(224,196)"/>
<path d="M0 0 C0.33 0 0.66 0 1 0 C1.21192221 5.19209404 0.5912689 9.126739 -1 14 C-1.33 14 -1.66 14 -2 14 C-2.1799928 8.78020872 -1.97094808 4.92737019 0 0 Z " fill="#DC9EA6" transform="translate(461,284)"/>
<path d="M0 0 C0.33 1.32 0.66 2.64 1 4 C-0.98 5.32 -2.96 6.64 -5 8 C-5.66 7.67 -6.32 7.34 -7 7 C-4.69 4.69 -2.38 2.38 0 0 Z " fill="#2A717C" transform="translate(340,416)"/>
<path d="M0 0 C3.95820859 0.56545837 6.6659053 1.80902348 10 4 C8.375 4.75 8.375 4.75 6 5 C2.75 3.125 2.75 3.125 0 1 C0 0.67 0 0.34 0 0 Z " fill="#AA8085" transform="translate(120,428)"/>
<path d="M0 0 C1.32 0.33 2.64 0.66 4 1 C1.69 2.65 -0.62 4.3 -3 6 C-3.66 5.67 -4.32 5.34 -5 5 C-2.75 2.4375 -2.75 2.4375 0 0 Z " fill="#DEA4AB" transform="translate(368,420)"/>
<path d="M0 0 C4.31392226 0.4793247 6.16569547 1.7457985 9 5 C4.98525763 5 3.18024863 3.33218233 0 1 C0 0.67 0 0.34 0 0 Z " fill="#B08A8E" transform="translate(111,422)"/>
<path d="M0 0 C4.571279 0.54855348 8.67435795 1.41744803 13 3 C13 3.33 13 3.66 13 4 C7.73946963 4.31563182 4.55426184 3.66590937 0 1 C0 0.67 0 0.34 0 0 Z " fill="#AA9FA0" transform="translate(301,18)"/>
<path d="M0 0 C8.57142857 -0.28571429 8.57142857 -0.28571429 12 2 C7.48281619 3.36884358 4.41225737 2.47075246 0 1 C0 0.67 0 0.34 0 0 Z " fill="#AA988B" transform="translate(262,89)"/>
<path d="M0 0 C0.33 0.99 0.66 1.98 1 3 C-0.8125 5.6875 -0.8125 5.6875 -3 8 C-3.66 8 -4.32 8 -5 8 C-3.62845496 5.04590299 -2.01136276 2.55991624 0 0 Z " fill="#C48892" transform="translate(419,372)"/>
<path d="M0 0 C1.85776765 3.13498292 2.20140476 5.37471432 2 9 C0.35 7.35 -1.3 5.7 -3 4 C-2.34 4 -1.68 4 -1 4 C-0.67 2.68 -0.34 1.36 0 0 Z " fill="#C67235" transform="translate(277,333)"/>
<path d="M0 0 C0.66 0 1.32 0 2 0 C0.70700306 2.88437779 -0.65941363 4.87219421 -3 7 C-3.66 6.67 -4.32 6.34 -5 6 C-3.38405168 3.95880212 -1.7143618 1.95927063 0 0 Z " fill="#BF8324" transform="translate(170,128)"/>
<path d="M0 0 C0.99 0.495 0.99 0.495 2 1 C2 1.66 2 2.32 2 3 C2.66 3 3.32 3 4 3 C4.66 4.65 5.32 6.3 6 8 C5.01 7.67 4.02 7.34 3 7 C3 6.34 3 5.68 3 5 C2.01 4.67 1.02 4.34 0 4 C0 2.68 0 1.36 0 0 Z " fill="#918789" transform="translate(417,95)"/>
<path d="M0 0 C0.66 0 1.32 0 2 0 C0.90931332 3.77545388 0.0916909 6.47043472 -3 9 C-1.125 2.25 -1.125 2.25 0 0 Z " fill="#CC9199" transform="translate(438,343)"/>
<path d="M0 0 C1.65 0.33 3.3 0.66 5 1 C0.25 5 0.25 5 -2 5 C-1.34 3.35 -0.68 1.7 0 0 Z " fill="#AA5C5B" transform="translate(190,280)"/>
<path d="M0 0 C0.598125 0.20625 1.19625 0.4125 1.8125 0.625 C0.6678125 1.2746875 0.6678125 1.2746875 -0.5 1.9375 C-2.76843768 3.36186785 -4.4074723 4.65760097 -6.1875 6.625 C-5.875 4.25 -5.875 4.25 -5.1875 1.625 C-2.1875 -0.375 -2.1875 -0.375 0 0 Z " fill="#2E3031" transform="translate(231.1875,202.375)"/>
</svg>
